# xmcd
#
# Track frame offsets: 
#        150
#        35098
#        55527
#        73798
#        86779
#        96363
#        114016
#        126246
#        150660
#        174538
#        185419
#        201465
#        225977
#        246868
#        265925
#        288480
#        307826
#        337202
#
# Disc length: 4721 seconds
#
# Revision: 2
# Processed by: cddbd v1.5.2PL0 Copyright (c) Steve Scherf et al.
# Submitted via: ExactAudioCopyFreeDBPlugin 1.0
#
DISCID=03126f12
DTITLE=v\\a - Cardiowave - Интерференция
DYEAR=2008
DGENRE=Cardiowave
TTITLE0=Ultraminor - Amitrip
TTITLE1=М.Р.Ф. - Новые чёрные крылья (Тим Талер mix)
TTITLE2=Легендарные Пластилиновые Ноги - Тонут корабли
TTITLE3=Дорогая Венди - Контрольный выстрел
TTITLE4=Л. Лиманенко \\ Ю. Самсон - Песнь воды и смерти (demo)
TTITLE5=The Клюквінs \\ Е. Войнаровская - Мёртвое дерево
TTITLE6=Белка и Стрелка - Тени
TTITLE7=Elektroherd - The Warm Glow From The Furnace (live in Dresden)
TTITLE8=The Клюквінs - (Я відріжу собі) Крила
TTITLE9=Г. Матвіїв - Дежавю
TTITLE10=Пернатый Zмей - В поисках
TTITLE11=Барви - Душа
TTITLE12=В. Несси \\ A. Kozmidi - Пастор Шлаг
TTITLE13=Тим Талер - На наших костях
TTITLE14=Е. Войнаровская \\ Г. Матвіїв - Заколдованный остров
TTITLE15=А. Басов - Ночь (Monster mix)
TTITLE16=Оля и Монстр - Сны деревьев (Verba mix)
TTITLE17=Verba - Coda
EXTD=
EXTT0=
EXTT1=
EXTT2=
EXTT3=
EXTT4=
EXTT5=
EXTT6=
EXTT7=
EXTT8=
EXTT9=
EXTT10=
EXTT11=
EXTT12=
EXTT13=
EXTT14=
EXTT15=
EXTT16=
EXTT17=
PLAYORDER=
